<svg xmlns="http://www.w3.org/2000/svg" viewBox="0 0 32 32" width="32" height="32">
  <!-- Background circle -->
  <circle cx="16" cy="16" r="15" fill="#2a2a2a" stroke="#00ff00" stroke-width="1"/>
  
  <!-- Letter G -->
  <path d="M8 12c0-2.2 1.8-4 4-4h8c2.2 0 4 1.8 4 4v8c0 2.2-1.8 4-4 4h-8c-2.2 0-4-1.8-4-4v-8zm2 0v8c0 1.1.9 2 2 2h8c1.1 0 2-.9 2-2v-8c0-1.1-.9-2-2-2h-8c-1.1 0-2 .9-2 2z" fill="#0066ff"/>
  
  <!-- Pixelated X -->
  <rect x="18" y="10" width="2" height="2" fill="#00ff00"/>
  <rect x="20" y="12" width="2" height="2" fill="#00ff00"/>
  <rect x="22" y="14" width="2" height="2" fill="#00ff00"/>
  <rect x="24" y="16" width="2" height="2" fill="#00ff00"/>
  <rect x="22" y="18" width="2" height="2" fill="#00ff00"/>
  <rect x="20" y="20" width="2" height="2" fill="#00ff00"/>
  <rect x="18" y="22" width="2" height="2" fill="#00ff00"/>
  
  <!-- Pixelated cursor -->
  <rect x="26" y="12" width="2" height="2" fill="#00ff00"/>
  <rect x="28" y="14" width="2" height="2" fill="#00ff00"/>
  <rect x="26" y="16" width="2" height="2" fill="#00ff00"/>
</svg> 